# xmcd CD database file
#
# Track frame offsets:
#	150
#	5872
#	14142
#	22022
#	43730
#	59742
#	82730
#	112187
#	118737
#	124080
#	147817
#	173647
#	181377
#	202617
#	223535
#	243032
#	259125
#	266512
#	274467
#	294865
#	311282
#
# Disc length: 4480 seconds
#
# Revision: 0
# Processed by: cddbd v1.4PL0 Copyright (c) Steve Scherf et al.
# Submitted via: CDex 1.50Beta7
#
DISCID=33117e15
DTITLE=Paul Meader and Robin Nolan - The Gypsy Jazz Play Along CD - Volume 4
DYEAR=2002
DGENRE=Jazz
TTITLE0=Tune up
TTITLE1=Gypsy rythm, example 1
TTITLE2=Gypsy rythm, example 2
TTITLE3=I'll See You In My Dreams (slow)
TTITLE4=I'll See You In My Dreams (medium)
TTITLE5=Tears
TTITLE6=Night and Day
TTITLE7=Ballad rythm, example 1
TTITLE8=Ballad rythm, example 2
TTITLE9=Melodie Au Crepuscule
TTITLE10=Anouman
TTITLE11=The Django Shuffle
TTITLE12=What is This Thing Called Love?
TTITLE13=Sweet Chorus
TTITLE14=Limehouse Blues (slow)
TTITLE15=Limehouse Blues (medium)
TTITLE16=Rythm Triplets, Example 1
TTITLE17=Rythm Triplets, Example 2
TTITLE18=Exactly Like You
TTITLE19=J'attendrai
TTITLE20=A Sprengisandi
EXTD=YEAR: 2002
EXTT0=
EXTT1=
EXTT2=
EXTT3=
EXTT4=
EXTT5=
EXTT6=
EXTT7=
EXTT8=
EXTT9=
EXTT10=
EXTT11=
EXTT12=
EXTT13=
EXTT14=
EXTT15=
EXTT16=
EXTT17=
EXTT18=
EXTT19=
EXTT20=
PLAYORDER=
